<svg width="100vw" height="277" viewBox="0 0 390 277" fill="none" xmlns="http://www.w3.org/2000/svg">
<g id="Waves3">
<path id="waves3" d="M0 115.597L6.5 120.321C13 125.045 26 134.493 39 134.336C52 134.257 65 124.494 78 116.778C91 109.062 104 103.236 117 104.732C130 106.149 143 114.81 156 122.053C169 129.218 182 135.044 195 134.729C208 134.493 221 128.195 234 124.1C247 120.085 260 118.195 273 122.526C286 126.856 299 137.406 312 135.91C325 134.493 338 121.109 351 113.629C364 106.149 377 104.575 383.5 103.787L390 103V277H383.5C377 277 364 277 351 277C338 277 325 277 312 277C299 277 286 277 273 277C260 277 247 277 234 277C221 277 208 277 195 277C182 277 169 277 156 277C143 277 130 277 117 277C104 277 91 277 78 277C65 277 52 277 39 277C26 277 13 277 6.5 277H0V115.597Z" fill="#DC98DD"/>
</g>
</svg>
