<svg width="100vw" height="277" viewBox="0 0 390 277" fill="none" xmlns="http://www.w3.org/2000/svg">
<g id="Waves5">
<path id="waves5" d="M0 197.214L6.5 196.977C13 196.661 26 196.187 39 196.029C52 195.871 65 196.187 78 201.401C91 206.694 104 216.963 117 220.518C130 224.073 143 220.913 156 215.936C169 210.88 182 204.087 195 203.139C208 202.191 221 207.246 234 210.643C247 214.04 260 215.936 273 217.99C286 220.123 299 222.493 312 223.046C325 223.52 338 222.256 351 219.333C364 216.41 377 211.986 383.5 209.695L390 207.483V277H383.5C377 277 364 277 351 277C338 277 325 277 312 277C299 277 286 277 273 277C260 277 247 277 234 277C221 277 208 277 195 277C182 277 169 277 156 277C143 277 130 277 117 277C104 277 91 277 78 277C65 277 52 277 39 277C26 277 13 277 6.5 277H0V197.214Z" fill="#FAB2C8"/>
</g>
</svg>
