<svg width="100vw" height="277" viewBox="0 0 390 277" fill="none" xmlns="http://www.w3.org/2000/svg">
<g id="Waves2">
<path id="waves2" d="M0 95.4039L6.5 95.0091C13 94.6143 26 93.8248 39 94.7722C52 95.6407 65 98.3252 78 90.1139C91 81.9815 104 63.0324 117 64.4535C130 65.9537 143 87.7452 156 89.6402C169 91.4561 182 73.2965 195 66.4274C208 59.6373 221 64.0588 234 69.9804C247 75.902 260 83.3238 273 83.7185C286 84.1133 299 77.4811 312 72.7438C325 68.0065 338 65.1641 351 64.2167C364 63.2692 377 64.3746 383.5 64.8483L390 65.401V277H383.5C377 277 364 277 351 277C338 277 325 277 312 277C299 277 286 277 273 277C260 277 247 277 234 277C221 277 208 277 195 277C182 277 169 277 156 277C143 277 130 277 117 277C104 277 91 277 78 277C65 277 52 277 39 277C26 277 13 277 6.5 277H0V95.4039Z" fill="#BA92EC"/>
</g>
</svg>
