<svg width="100vw" height="277" viewBox="0 0 390 277" fill="none" xmlns="http://www.w3.org/2000/svg">
<g id="Waves4">
<path id="waves4" d="M0 163.31L6.5 166.468C13 169.626 26 175.942 39 178.705C52 181.469 65 180.679 78 180.916C91 181.232 104 182.495 117 177.679C130 172.784 143 161.731 156 160.388C169 159.125 182 167.494 195 167.415C208 167.257 221 158.573 234 155.414C247 152.256 260 154.625 273 160.152C286 165.678 299 174.363 312 178.547C325 182.811 338 182.495 351 177.916C364 173.337 377 164.336 383.5 159.915L390 155.414V277H383.5C377 277 364 277 351 277C338 277 325 277 312 277C299 277 286 277 273 277C260 277 247 277 234 277C221 277 208 277 195 277C182 277 169 277 156 277C143 277 130 277 117 277C104 277 91 277 78 277C65 277 52 277 39 277C26 277 13 277 6.5 277H0V163.31Z" fill="#F0A3D0"/>
</g>
</svg>
